<?xml version="1.0" encoding="UTF-8" standalone="no"?>
<!-- Uploaded to: SVG Repo, www.svgrepo.com, Generator: SVG Repo Mixer Tools -->

<svg
   width="733.33331"
   height="400"
   viewBox="0 0 21.999999 12"
   version="1.1"
   id="svg1"
   sodipodi:docname="car.svg"
   inkscape:version="1.4 (86a8ad7, 2024-10-11)"
   xmlns:inkscape="http://www.inkscape.org/namespaces/inkscape"
   xmlns:sodipodi="http://sodipodi.sourceforge.net/DTD/sodipodi-0.dtd"
   xmlns="http://www.w3.org/2000/svg"
   xmlns:svg="http://www.w3.org/2000/svg">
  <defs
     id="defs1" />
  <sodipodi:namedview
     id="namedview1"
     pagecolor="#ffffff"
     bordercolor="#000000"
     borderopacity="0.25"
     inkscape:showpageshadow="2"
     inkscape:pageopacity="0.0"
     inkscape:pagecheckerboard="0"
     inkscape:deskcolor="#d1d1d1"
     inkscape:zoom="1.13875"
     inkscape:cx="366.63008"
     inkscape:cy="199.78046"
     inkscape:window-width="1920"
     inkscape:window-height="1171"
     inkscape:window-x="-9"
     inkscape:window-y="-9"
     inkscape:window-maximized="1"
     inkscape:current-layer="svg1" />
  <path
     d="m 15,0 3,4 h 2 c 1.11,0 2,0.89 2,2 v 3 h -2 c 0,1.66 -1.34,3 -3,3 -1.66,0 -3,-1.34 -3,-3 H 8 C 8,10.66 6.66,12 5,12 3.34,12 2,10.66 2,9 H 0 V 6 C 0,4.89 0.89,4 2,4 L 5,0 H 15 M 9.5,1.5 H 5.75 L 3.86,4 H 9.5 V 1.5 m 1.5,0 V 4 h 5.14 L 14.25,1.5 H 11 m -6,6 C 4.17,7.5 3.5,8.17 3.5,9 3.5,9.83 4.17,10.5 5,10.5 5.83,10.5 6.5,9.83 6.5,9 6.5,8.17 5.83,7.5 5,7.5 m 12,0 c -0.83,0 -1.5,0.67 -1.5,1.5 0,0.83 0.67,1.5 1.5,1.5 0.83,0 1.5,-0.67 1.5,-1.5 0,-0.83 -0.67,-1.5 -1.5,-1.5 z"
     id="path1"
     style="fill:#ffffff" />
</svg>
